#!OML:ASF C:\ViconDB\ViconDB\414\Spring2016\041811\Spring2016.ASF
:FULLY-SPECIFIED
:DEGREES
246
root 6.15218 15.1712 -19.9092 -167.57 -9.44207 178.606
lowerback 29.6859 1.59084 -1.68915
upperback 4.49565 0.47995 -0.0160364
thorax -11.3519 -0.14012 0.862345
lowerneck -21.1407 3.4871 -5.07025
upperneck 8.52931 4.95353 6.74261
head 5.67156 2.74453 3.49672
rclavicle -3.08116e-015 2.38542e-014
rhumerus -43.3908 -6.20848 -85.7823
rradius 62.5946
rwrist 9.15458
rhand -38.4345 -17.3568
rfingers 7.12502
rthumb -11.4583 -47.0237
lclavicle -3.08116e-015 2.38542e-014
lhumerus -35.4419 -8.78245 79.7866
lradius 62.5355
lwrist 1.8148
lhand -32.4757 14.549
lfingers 7.12502
lthumb -5.70799 44.4521
rfemur -47.516 -20.2401 22.7728
rtibia 81.9394
rfoot 4.23887 -18.7756
rtoes -1.35688
lfemur -54.2052 9.59849 -14.0507
ltibia 78.9599
lfoot -32.9694 -10.8158
ltoes -16.4806
247
root 6.14394 15.2715 -20.123 -167.443 -9.59514 178.493
lowerback 29.121 1.61327 -1.89176
upperback 4.40907 0.505811 0.0249327
thorax -11.1695 -0.102936 1.0141
lowerneck -21.2315 3.44203 -4.92885
upperneck 8.8188 4.8788 6.60092
head 5.79022 2.70539 3.43197
rclavicle 5.1684e-015 -5.1684e-015
rhumerus -42.9096 -5.50344 -85.4588
rradius 64.3813
rwrist 8.40839
rhand -37.9479 -18.4654
rfingers 7.12502
rthumb -10.989 -48.1577
lclavicle 5.1684e-015 -5.1684e-015
lhumerus -34.7818 -9.32467 79.0064
lradius 63.9558
lwrist 2.43521
lhand -32.4997 14.5046
lfingers 7.12502
lthumb -5.7312 44.4071
rfemur -45.7552 -20.1668 22.5129
rtibia 80.4339
rfoot 4.38722 -18.5067
rtoes -1.29056
lfemur -52.5845 9.21402 -13.9636
ltibia 77.6617
lfoot -33.4431 -10.3412
ltoes -17.6483
248
root 6.13401 15.3895 -20.3456 -167.362 -9.70063 178.246
lowerback 28.4811 1.63515 -2.18987
upperback 4.32097 0.499755 0.00460078
thorax -10.9485 -0.0781693 1.16321
lowerneck -21.2625 3.30449 -5.32207
upperneck 9.05796 4.72535 7.12494
head 5.85989 2.66224 3.65658
rclavicle -9.44227e-015 -6.4605e-015
rhumerus -42.3452 -4.6977 -85.1199
rradius 66.5266
rwrist 6.93268
rhand -37.7324 -19.3631
rfingers 7.12502
rthumb -10.7812 -49.0664
lclavicle -9.44227e-015 -6.4605e-015
lhumerus -34.0438 -10.0328 78.0819
lradius 65.7805
lwrist 3.68196
lhand -32.7199 15.1261
lfingers 7.12502
lthumb -5.94376 45.0227
rfemur -43.7123 -20.0863 22.0629
rtibia 78.6262
rfoot 4.5989 -18.2484
rtoes -1.1273
lfemur -50.6842 8.80659 -14.0328
ltibia 76.0898
lfoot -33.7887 -9.99033
ltoes -17.916
249
root 6.11929 15.5192 -20.5769 -167.268 -9.82682 178.034
lowerback 27.7175 1.63501 -2.53612
upperback 4.16269 0.480253 0.0308315
thorax -10.7423 -0.0497049 1.39655
lowerneck -21.3 3.20793 -5.44339
upperneck 9.44566 4.60364 7.29979
head 5.9917 2.61745 3.73289
rclavicle -9.93923e-015 9.74045e-015
rhumerus -41.8894 -3.82454 -84.7153
rradius 69.2521
rwrist 4.24126
rhand -38.721 -19.4374
rfingers 7.12502
rthumb -11.7346 -49.0888
lclavicle -9.93923e-015 9.74045e-015
lhumerus -33.5055 -10.6397 77.0799
lradius 68.1636
lwrist 5.06032
lhand -32.8394 15.3911
lfingers 7.12502
lthumb -6.05913 45.2845
rfemur -41.5532 -19.9576 21.6967
rtibia 76.585
rfoot 4.80901 -17.8919
rtoes -1.05085
lfemur -48.6609 8.26431 -14.0378
ltibia 74.3052
lfoot -33.9929 -9.63489
ltoes -18.2876
250
root 6.10216 15.6625 -20.818 -167.2 -9.91576 177.914
lowerback 26.7498 1.6104 -2.7647
upperback 3.99532 0.482924 0.0656225
thorax -10.4363 -0.0138818 1.56251
lowerneck -21.2756 3.14375 -5.53955
upperneck 9.80651 4.54193 7.32406
head 6.1052 2.58999 3.75985
rclavicle 9.93923e-017 -2.18663e-015
rhumerus -41.5034 -2.92553 -84.1176
rradius 72.5956
rwrist 2.44764
rhand -39.0976 -19.5916
rfingers 7.12502
rthumb -12.0977 -49.2219
lclavicle 9.93923e-017 -2.18663e-015
lhumerus -32.8575 -11.2497 75.9021
lradius 70.7126
lwrist 6.12888
lhand -32.7421 15.7409
lfingers 7.12502
lthumb -5.96518 45.637
rfemur -39.2981 -19.6766 21.3519
rtibia 74.368
rfoot 4.83651 -17.4119
rtoes -0.853715
lfemur -46.4932 7.74551 -14.0035
ltibia 72.3055
lfoot -33.8817 -9.21346
ltoes -18.8311
251
root 6.07998 15.8103 -21.0594 -166.986 -9.93841 177.787
lowerback 25.6782 1.57175 -2.91258
upperback 3.67285 0.514788 0.0435158
thorax -10.2464 0.045134 1.60663
lowerneck -21.2197 3.00725 -5.74242
upperneck 10.2243 4.37989 7.53586
head 6.23304 2.52489 3.85593
rclavicle -2.20651e-014 1.45113e-014
rhumerus -41.1633 -2.27134 -83.1661
rradius 76.074
rwrist 2.37042
rhand -38.1504 -19.9636
rfingers 7.12502
rthumb -11.1843 -49.6455
lclavicle -2.20651e-014 1.45113e-014
lhumerus -32.2731 -11.7152 74.5175
lradius 73.444
lwrist 6.81332
lhand -32.5504 15.6502
lfingers 7.12502
lthumb -5.78018 45.5514
rfemur -37.1961 -19.3485 21.0311
rtibia 72.0229
rfoot 4.69406 -16.8445
rtoes -0.450873
lfemur -44.5113 7.24344 -14.065
ltibia 70.1816
lfoot -33.5829 -8.61819
ltoes -18.7309
252
root 6.05604 15.9798 -21.331 -167.065 -10.1105 177.623
lowerback 24.5706 1.50926 -3.13601
upperback 3.42978 0.498153 0.138544
thorax -9.94004 0.0778194 1.84247
lowerneck -21.0557 2.85441 -6.1525
upperneck 10.596 4.26994 7.65992
head 6.32243 2.4689 3.95783
rclavicle 1.88845e-015 9.54166e-015
rhumerus -40.8536 -1.32388 -82.0227
rradius 80.0196
rwrist 1.95766
rhand -36.7576 -19.9094
rfingers 7.12502
rthumb -9.8408 -49.6594
lclavicle 1.88845e-015 9.54166e-015
lhumerus -31.668 -12.0438 73.2182
lradius 76.4319
lwrist 7.24974
lhand -31.9907 15.8917
lfingers 7.12502
lthumb -5.23979 45.8069
rfemur -34.4817 -19.1564 20.5764
rtibia 69.4925
rfoot 4.42221 -16.1626
rtoes -0.455944
lfemur -41.8766 6.48811 -14.0892
ltibia 67.7953
lfoot -33.2534 -7.96054
ltoes -19.4198
